<?xml version="1.0" encoding="utf-8"?>
<!-- Generator: Adobe Illustrator 24.3.0, SVG Export Plug-In . SVG Version: 6.00 Build 0)  -->
<svg version="1.1" id="Calque_1" xmlns="http://www.w3.org/2000/svg" xmlns:xlink="http://www.w3.org/1999/xlink" x="0px" y="0px"
	 viewBox="0 0 855 231" style="enable-background:new 0 0 855 231;" xml:space="preserve">
<style type="text/css">
	.st0{fill:#E50914;}
</style>
<g>
	<polygon class="st0" points="409.97,200.53 445.52,200.53 445.52,118.64 494.74,118.64 494.74,82.62 445.52,82.62 445.52,36.75 
		510.84,36.75 510.84,0.73 409.97,0.73 	"/>
	<path class="st0" d="M660.93,210.14c11.52,0.72,23.53,1.2,35.3,2.64V0.73h-35.3V210.14z"/>
	<path class="st0" d="M854,0.73h-39.38L789.4,61.24L765.87,0.73h-38.91l42.03,108.3L722.64,214.7c12.97,1.68,25.7,2.41,38.66,4.57
		l26.41-61.24l25.7,66.76c13.69,2.16,27.13,4.57,40.58,6.49l-45.62-120.8L854,0.73z"/>
	<path class="st0" d="M569.19,0.73h-36.01v202.2c32.9,0.73,65.08,2.64,97.25,4.8v-35.78c-19.93-0.96-40.58-2.64-61.24-3.12V0.73z"/>
	<path class="st0" d="M104.29,14.41C94.89,5.32,80.6,0.74,61.19,0.74L1,0.74l0,230.53l41.31-5.24l0-91.73l18.88-1.42
		c19.42-1.46,33.7-7.11,43.1-16.91c9.29-9.68,13.9-23.22,13.9-40.68l0-21.26C118.19,36.59,113.58,23.4,104.29,14.41z M75.62,95.48
		c-3.19,3.34-7.99,5.19-14.43,5.56l-18.88,1.08l0-69.2l18.88-0.34c6.44-0.12,11.24,1.38,14.43,4.48c3.17,3.09,4.76,8.41,4.76,15.96
		l0,26.14C80.38,86.72,78.79,92.16,75.62,95.48z"/>
	<path class="st0" d="M338.77,0.73h-49.65v203.12l33.72-0.93V120.6h15.94c16.75,0,29.32-4.23,37.7-12.71
		c8.38-8.47,12.57-20.89,12.57-37.26V50.7c0-16.36-4.19-28.79-12.57-37.26C368.09,4.97,355.52,0.73,338.77,0.73z M355.32,72.66
		c0,6.93-1.38,11.84-4.14,14.73c-2.76,2.89-6.9,4.33-12.41,4.33h-15.94v-62.1h15.94c5.52,0,9.66,1.45,12.41,4.33
		c2.76,2.89,4.14,7.8,4.14,14.73V72.66z"/>
	<polygon class="st0" points="219.03,85.16 181.74,86.28 181.74,0.73 146.07,0.73 146.07,213.5 181.74,210.86 181.74,116.3 
		219.03,114.78 219.03,208.1 252.92,205.59 252.92,0.73 219.03,0.73 	"/>
</g>
</svg>
